<?xml version="1.0" encoding="UTF-8" standalone="no"?>
<!-- Created with Inkscape (http://www.inkscape.org/) -->

<svg
   version="1.1"
   id="svg1"
   width="300"
   height="300"
   viewBox="0 0 300 300"
   sodipodi:docname="lazy-bear-sitting.svg"
   inkscape:version="1.4.2 (ebf0e940, 2025-05-08)"
   xmlns:inkscape="http://www.inkscape.org/namespaces/inkscape"
   xmlns:sodipodi="http://sodipodi.sourceforge.net/DTD/sodipodi-0.dtd"
   xmlns="http://www.w3.org/2000/svg"
   xmlns:svg="http://www.w3.org/2000/svg">
  <defs
     id="defs1" />
  <sodipodi:namedview
     id="namedview1"
     pagecolor="#ffffff"
     bordercolor="#000000"
     borderopacity="0.25"
     inkscape:showpageshadow="2"
     inkscape:pageopacity="0.0"
     inkscape:pagecheckerboard="0"
     inkscape:deskcolor="#d1d1d1"
     inkscape:zoom="1"
     inkscape:cx="150"
     inkscape:cy="149.5"
     inkscape:window-width="1064"
     inkscape:window-height="750"
     inkscape:window-x="142"
     inkscape:window-y="184"
     inkscape:window-maximized="0"
     inkscape:current-layer="g1" />
  <g
     inkscape:groupmode="layer"
     inkscape:label="Image"
     id="g1">
    <path
       style="fill:#000000"
       d="m 100,291.93051 c -2.56667,-0.1269 -7.81667,-0.53729 -11.666667,-0.91199 -3.85,-0.3747 -12.530003,-0.99169 -19.288896,-1.37108 -6.758893,-0.37939 -13.508893,-0.95611 -15,-1.28161 -1.491107,-0.3255 -4.511104,-0.93604 -6.711104,-1.35676 -6.374359,-1.21901 -10.022171,-2.59194 -11.737579,-4.41766 -1.40037,-1.49042 -1.650814,-2.56931 -2.045448,-8.81156 -0.462683,-7.31866 -2.06812,-13.38007 -5.650816,-21.33494 -4.283215,-9.51028 -5.294847,-13.95929 -7.983802,-35.11158 -1.975715,-15.54168 -1.965721,-23.60549 0.0421,-33.96882 2.24977,-11.61216 6.635685,-28.97034 8.514475,-33.69784 2.098728,-5.28092 4.85032,-9.76366 8.798086,-14.33334 8.58853,-9.94152 27.024458,-36.262433 34.087545,-48.666663 3.560911,-6.25369 8.160856,-12.662406 11.376858,-15.85042 3.500983,-3.470515 11.024738,-7.478885 21.598578,-11.506904 6.22254,-2.370423 16.93565,-7.793187 17.63655,-8.927272 0.19624,-0.317522 1.63329,-1.238539 3.19346,-2.046705 1.56016,-0.808166 5.68666,-3.498415 9.16999,-5.978332 9.93518,-7.073232 20.333,-11.675432 31.66667,-14.016052 10.37718,-2.143086 14.07925,-4.330711 17.62102,-10.412592 3.47133,-5.96093 5.20263,-7.59903 8.00371,-7.57288 4.19462,0.0392 7.35451,3.85724 7.41501,8.959494 0.0219,1.843415 0.28399,4.840546 0.58252,6.660291 0.67795,4.132547 2.81697,6.065133 9.16194,8.27773 7.57772,2.642478 15.38614,6.730083 18.91215,9.900266 4.05064,3.641877 6.2314,7.222084 7.59965,12.476557 1.94242,7.459408 5.4769,10.932345 19.704,19.360913 4.21667,2.498082 8.52646,5.440775 9.57731,6.539317 1.6687,1.744419 1.86212,2.351401 1.52743,4.79323 -0.36268,2.646038 -3.826,9.984082 -6.47746,13.724372 -1.7872,2.52112 -5.42092,3.74969 -13.44816,4.54687 -8.05433,0.79987 -10.16658,1.51349 -14.65243,4.95025 -3.06408,2.3475 -4.54394,2.85709 -19.86002,6.83878 -4.09253,1.06393 -4.75108,1.7015 -7.17844,6.94975 -1.40099,3.02914 -1.70422,4.7099 -1.74398,9.66667 -0.0473,5.90143 0.008,6.11499 3.36068,13 6.30031,12.93775 9.87173,26.49478 8.84642,33.5808 -0.90248,6.23711 -0.7306,15.21496 0.31773,16.59642 0.49134,0.64748 2.5068,1.65021 4.4788,2.22829 10.8149,3.17035 18.9922,9.5567 24.93142,19.47107 1.82639,3.04878 5.23031,8.44878 7.56428,12 2.33396,3.55121 5.43136,8.55675 6.88309,11.12342 1.45174,2.56667 2.8683,4.90283 3.14791,5.19148 0.27961,0.28865 2.61851,-0.23635 5.19756,-1.16667 7.36781,-2.65772 11.11383,-2.01792 14.28841,2.44037 1.27294,1.78769 1.52024,2.94631 1.46091,6.84444 -0.12382,8.13368 -2.92772,15.16815 -8.01777,20.11511 -5.53943,5.38371 -13.00598,7.77301 -27.87036,8.91854 -8.17307,0.62985 -19.71048,1.87454 -37,3.99166 -2.75,0.33674 -7.85,0.92246 -11.33333,1.30159 -3.48333,0.37914 -9.03333,1.01621 -12.33333,1.41573 -5.64617,0.68355 -76.15329,1.39806 -86.66667,0.87826 z"
       id="path1" />
  </g>
</svg>
